<svg width="42" height="37" viewBox="0 0 42 37" fill="none" xmlns="http://www.w3.org/2000/svg">
<rect width="42" height="37" rx="8" fill="#F03C3C"/>
<path d="M14.6733 13.3409L11.392 25.5312H10.3182L13.5994 13.3409H14.6733ZM19.3851 16.3636V17.358H15.4277V16.3636H19.3851ZM16.5811 14.5341H17.7544V21.8125C17.7544 22.1439 17.8025 22.3925 17.8986 22.5582C17.998 22.7206 18.124 22.83 18.2765 22.8864C18.4322 22.9394 18.5963 22.9659 18.7686 22.9659C18.8979 22.9659 19.004 22.9593 19.0868 22.946C19.1697 22.9295 19.236 22.9162 19.2857 22.9062L19.5243 23.9602C19.4448 23.9901 19.3337 24.0199 19.1912 24.0497C19.0487 24.0829 18.8681 24.0994 18.6493 24.0994C18.3179 24.0994 17.9931 24.0282 17.6749 23.8857C17.36 23.7431 17.0982 23.526 16.8894 23.2344C16.6839 22.9427 16.5811 22.5748 16.5811 22.1307V14.5341ZM21.15 24V16.3636H22.3233V24H21.15ZM21.7466 15.0909C21.5179 15.0909 21.3207 15.013 21.155 14.8572C20.9926 14.7015 20.9114 14.5142 20.9114 14.2955C20.9114 14.0767 20.9926 13.8894 21.155 13.7337C21.3207 13.5779 21.5179 13.5 21.7466 13.5C21.9753 13.5 22.1709 13.5779 22.3333 13.7337C22.499 13.8894 22.5819 14.0767 22.5819 14.2955C22.5819 14.5142 22.499 14.7015 22.3333 14.8572C22.1709 15.013 21.9753 15.0909 21.7466 15.0909ZM27.5547 27.0227C26.9879 27.0227 26.5007 26.9498 26.093 26.804C25.6854 26.6615 25.3456 26.4725 25.0739 26.2372C24.8054 26.0052 24.5916 25.7566 24.4325 25.4915L25.3672 24.8352C25.4732 24.9744 25.6075 25.1335 25.7699 25.3125C25.9323 25.4948 26.1544 25.6522 26.4361 25.7848C26.7211 25.9207 27.094 25.9886 27.5547 25.9886C28.1712 25.9886 28.6799 25.8395 29.081 25.5412C29.482 25.2429 29.6825 24.7756 29.6825 24.1392V22.5881H29.5831C29.4969 22.7273 29.3743 22.8996 29.2152 23.1051C29.0594 23.3073 28.834 23.4879 28.5391 23.647C28.2474 23.8028 27.853 23.8807 27.3558 23.8807C26.7393 23.8807 26.1858 23.7348 25.6953 23.4432C25.2081 23.1515 24.822 22.7273 24.5369 22.1705C24.2552 21.6136 24.1143 20.9375 24.1143 20.142C24.1143 19.3598 24.2519 18.6787 24.527 18.0987C24.8021 17.5154 25.1849 17.0646 25.6754 16.7464C26.166 16.425 26.7327 16.2642 27.3757 16.2642C27.8729 16.2642 28.2673 16.3471 28.5589 16.5128C28.8539 16.6752 29.0793 16.8608 29.2351 17.0696C29.3942 17.2751 29.5168 17.4441 29.603 17.5767H29.7223V16.3636H30.8558V24.2188C30.8558 24.875 30.7067 25.4086 30.4084 25.8196C30.1134 26.2339 29.7157 26.5372 29.2152 26.7294C28.718 26.925 28.1645 27.0227 27.5547 27.0227ZM27.5149 22.8267C27.9856 22.8267 28.3833 22.719 28.7081 22.5036C29.0329 22.2881 29.2798 21.9782 29.4489 21.5739C29.6179 21.1695 29.7024 20.6856 29.7024 20.1222C29.7024 19.572 29.6196 19.0864 29.4538 18.6655C29.2881 18.2446 29.0429 17.9148 28.718 17.6761C28.3932 17.4375 27.9922 17.3182 27.5149 17.3182C27.0178 17.3182 26.6035 17.4441 26.272 17.696C25.9439 17.9479 25.697 18.286 25.5312 18.7102C25.3688 19.1345 25.2876 19.6051 25.2876 20.1222C25.2876 20.6525 25.3705 21.1214 25.5362 21.5291C25.7053 21.9335 25.9538 22.2517 26.282 22.4837C26.6134 22.7124 27.0244 22.8267 27.5149 22.8267Z" fill="white"/>
</svg>
